<svg width="161" height="38" viewBox="0 0 161 38" fill="none" xmlns="http://www.w3.org/2000/svg">
<g filter="url(#filter0_d)">
<path d="M12.336 32.6V3.56H4.848L3.456 10.424C2.688 10.552 2.048 10.504 1.536 10.28C1.12 6.6 0.96 3.64 1.056 1.4H29.136C29.232 3.96 29.056 6.92 28.608 10.28C28.096 10.504 27.456 10.552 26.688 10.424L25.296 3.56H17.376V32.6L21.36 33.56C21.456 34.168 21.376 34.728 21.12 35.24C18.24 35.08 16.192 35 14.976 35C13.536 35 11.344 35.08 8.4 35.24C8.304 34.6 8.336 34.04 8.496 33.56C9.744 33.4 11.024 33.08 12.336 32.6ZM31.6901 18.152C31.6901 12.84 33.1781 8.568 36.1541 5.336C39.1301 2.072 42.9381 0.439999 47.5781 0.439999C52.3141 0.439999 56.1701 2.088 59.1461 5.384C62.1221 8.648 63.6101 12.904 63.6101 18.152C63.6101 23.496 62.1381 27.8 59.1941 31.064C56.2501 34.328 52.3781 35.96 47.5781 35.96C42.7461 35.96 38.8901 34.328 36.0101 31.064C33.1301 27.8 31.6901 23.496 31.6901 18.152ZM58.0901 17.816C58.0901 15.224 57.6901 12.808 56.8901 10.568C56.1221 8.296 54.9061 6.408 53.2421 4.904C51.5781 3.4 49.6421 2.648 47.4341 2.648C45.6421 2.648 44.0741 3.096 42.7301 3.992C41.3861 4.856 40.3141 6.056 39.5141 7.592C38.7461 9.096 38.1701 10.776 37.7861 12.632C37.4021 14.456 37.2101 16.44 37.2101 18.584C37.2101 22.904 38.1861 26.52 40.1381 29.432C42.1221 32.312 44.7781 33.752 48.1061 33.752C51.3701 33.752 53.8501 32.248 55.5461 29.24C57.2421 26.2 58.0901 22.392 58.0901 17.816ZM79.6478 35.336L73.6478 35C72.2398 35 70.0478 35.08 67.0718 35.24C66.9758 34.632 67.0078 34.072 67.1678 33.56C68.6078 33.368 69.8878 33.048 71.0078 32.6V3.8L67.3118 2.84C67.2158 2.232 67.2958 1.672 67.5518 1.16C70.4318 1.32 72.3838 1.4 73.4078 1.4L79.6478 1.208C85.9518 1.208 90.6878 2.664 93.8558 5.576C97.0238 8.488 98.6078 12.536 98.6078 17.72C98.6078 20.888 98.0798 23.64 97.0238 25.976C95.9998 28.28 94.5758 30.12 92.7518 31.496C90.9598 32.84 88.9598 33.816 86.7518 34.424C84.5758 35.032 82.2078 35.336 79.6478 35.336ZM76.0478 32.84C77.1358 32.936 78.1918 32.984 79.2158 32.984C84.3038 32.984 87.9198 31.784 90.0638 29.384C92.2078 26.952 93.2798 23.064 93.2798 17.72C93.2798 12.888 92.1278 9.304 89.8238 6.968C87.5518 4.632 83.7758 3.464 78.4958 3.464C78.0158 3.464 77.1998 3.496 76.0478 3.56V32.84ZM119.834 23.48H108.698L105.578 32.6L109.274 33.56C109.37 34.168 109.29 34.728 109.034 35.24C106.154 35.08 104.202 35 103.178 35C102.634 35 102.106 35.016 101.594 35.048C101.082 35.08 100.586 35.112 100.106 35.144C99.6263 35.176 99.1783 35.208 98.7622 35.24C98.6662 34.632 98.6982 34.072 98.8582 33.56C100.298 33.368 101.53 33.048 102.554 32.6L113.93 0.487998C114.41 0.231997 115.034 0.103997 115.802 0.103997L128.81 32.6L132.506 33.56C132.602 34.168 132.522 34.728 132.266 35.24C129.386 35.08 127.434 35 126.41 35C124.746 35 122.426 35.08 119.45 35.24C119.354 34.632 119.386 34.072 119.546 33.56C121.05 33.368 122.33 33.048 123.386 32.6L119.834 23.48ZM114.026 7.16H113.93C112.938 10.712 112.234 13.08 111.818 14.264L109.562 20.84H118.778L116.138 14.024C115.114 11.656 114.41 9.368 114.026 7.16ZM146.121 19.592V32.6L150.297 33.56C150.393 34.168 150.313 34.728 150.057 35.24C147.177 35.08 145.065 35 143.721 35C142.313 35 140.121 35.08 137.145 35.24C137.017 34.632 137.049 34.072 137.241 33.56C139.033 33.336 140.313 33.016 141.081 32.6V20.552L130.761 3.8L127.065 2.84C126.969 2.232 127.049 1.672 127.305 1.16C130.185 1.32 132.281 1.4 133.593 1.4C135.097 1.4 137.337 1.32 140.313 1.16C140.409 1.768 140.377 2.328 140.217 2.84C138.393 3.064 137.097 3.384 136.329 3.8L144.249 17.432H144.441L152.409 3.8L148.713 2.84C148.617 2.232 148.697 1.672 148.953 1.16C151.193 1.32 153.001 1.4 154.377 1.4C155.465 1.4 157.177 1.32 159.513 1.16C159.609 1.768 159.577 2.328 159.417 2.84C157.433 3.096 156.073 3.416 155.337 3.8L146.121 19.592Z" fill="black"/>
</g>
<defs>
<filter id="filter0_d" x="0.029007" y="0.104004" width="160.538" height="37.856" filterUnits="userSpaceOnUse" color-interpolation-filters="sRGB">
<feFlood flood-opacity="0" result="BackgroundImageFix"/>
<feColorMatrix in="SourceAlpha" type="matrix" values="0 0 0 0 0 0 0 0 0 0 0 0 0 0 0 0 0 0 127 0"/>
<feOffset dy="1"/>
<feGaussianBlur stdDeviation="0.5"/>
<feColorMatrix type="matrix" values="0 0 0 0 0 0 0 0 0 0 0 0 0 0 0 0 0 0 0.25 0"/>
<feBlend mode="normal" in2="BackgroundImageFix" result="effect1_dropShadow"/>
<feBlend mode="normal" in="SourceGraphic" in2="effect1_dropShadow" result="shape"/>
</filter>
</defs>
</svg>
